<svg width="113" height="31" viewBox="0 0 113 31" fill="none" xmlns="http://www.w3.org/2000/svg">
<path d="M66.2814 0.738793C66.1256 0.293614 65.7083 0.00146484 65.2408 0.00146484C64.7762 0.00146484 64.3588 0.293614 64.2086 0.738793L54.6929 28.0338C54.4925 28.6042 54.7958 29.233 55.3662 29.4306C55.9394 29.6281 56.5682 29.3276 56.7713 28.7545L65.2408 4.44213L73.7104 28.7545C73.8717 29.208 74.2947 29.4918 74.7538 29.4918C74.8678 29.4918 74.993 29.4751 75.1127 29.4334C75.6831 29.2358 75.9891 28.607 75.786 28.0366L66.2814 0.738793Z" fill="#14181A"/>
<path d="M39.5129 0.063131C38.9342 -0.139982 38.3054 0.163296 38.1078 0.739247L29.6355 25.0488L21.1632 0.739247C21.0074 0.294068 20.5956 0.00191884 20.1254 0.00191884C19.6579 0.00191884 19.2378 0.294068 19.0903 0.739247L10.6152 25.0488L2.14013 0.739247C1.93979 0.163296 1.31933 -0.139982 0.743376 0.063131C0.164644 0.263462 -0.138635 0.892277 0.0616958 1.45988L9.57462 28.7549C9.73043 29.1973 10.145 29.4922 10.6152 29.4922C11.0827 29.4922 11.4972 29.2001 11.6503 28.7549L20.1226 4.44258L28.5893 28.7549C28.7507 29.1973 29.1625 29.4922 29.6299 29.4922C30.0974 29.4922 30.5175 29.2001 30.665 28.7549L40.1835 1.45988C40.3838 0.892277 40.0833 0.263462 39.5129 0.063131Z" fill="#14181A"/>
<path d="M111.775 0.00146484C111.172 0.00146484 110.682 0.493944 110.682 1.09772V22.227C110.682 25.8525 106.904 28.799 102.268 28.799C97.6299 28.799 93.857 25.8525 93.857 22.227V1.09772C93.857 0.493944 93.3617 0.00146484 92.7552 0.00146484C92.1486 0.00146484 91.6589 0.493944 91.6589 1.09772V22.227C91.6589 27.0628 96.4168 30.9998 102.265 30.9998C108.114 30.9998 112.874 27.0656 112.874 22.227V1.09772C112.88 0.493944 112.388 0.00146484 111.775 0.00146484Z" fill="#14181A"/>
<path d="M47.1456 13.0596C46.2135 13.0596 45.4595 13.8164 45.4595 14.7457C45.4595 15.6778 46.2135 16.4346 47.1456 16.4346C48.0749 16.4346 48.8317 15.6778 48.8317 14.7457C48.8317 13.8164 48.0777 13.0596 47.1456 13.0596Z" fill="#00ACA9"/>
<path d="M82.0368 13.0596C81.1047 13.0596 80.3479 13.8164 80.3479 14.7457C80.3479 15.6778 81.1047 16.4346 82.0368 16.4346C82.9689 16.4346 83.7257 15.6778 83.7257 14.7457C83.7257 13.8164 82.9689 13.0596 82.0368 13.0596Z" fill="#00ACA9"/>
</svg>
