<?xml version="1.0" encoding="utf-8"?>
<!-- Generator: Adobe Illustrator 24.3.0, SVG Export Plug-In . SVG Version: 6.00 Build 0)  -->
<svg version="1.0" id="Livello_1" xmlns="http://www.w3.org/2000/svg" xmlns:xlink="http://www.w3.org/1999/xlink" x="0px" y="0px"
	 viewBox="0 0 113 31" style="enable-background:new 0 0 113 31;" xml:space="preserve">
<style type="text/css">
	.st0{fill:#FFFFFF;}
</style>
<path class="st0" d="M66.3,0.7c-0.2-0.4-0.6-0.7-1-0.7c-0.5,0-0.9,0.3-1,0.7L54.7,28c-0.2,0.6,0.1,1.2,0.7,1.4
	c0.6,0.2,1.2-0.1,1.4-0.7l8.5-24.3l8.5,24.3c0.2,0.5,0.6,0.7,1,0.7c0.1,0,0.2,0,0.4-0.1c0.6-0.2,0.9-0.8,0.7-1.4L66.3,0.7z"/>
<path class="st0" d="M39.5,0.1c-0.6-0.2-1.2,0.1-1.4,0.7L29.6,25L21.2,0.7C21,0.3,20.6,0,20.1,0s-0.9,0.3-1,0.7L10.6,25L2.1,0.7
	C1.9,0.2,1.3-0.1,0.7,0.1C0.2,0.3-0.1,0.9,0.1,1.5l9.5,27.3c0.2,0.4,0.6,0.7,1,0.7c0.5,0,0.9-0.3,1-0.7l8.5-24.3l8.5,24.3
	c0.2,0.4,0.6,0.7,1,0.7c0.5,0,0.9-0.3,1-0.7l9.5-27.3C40.4,0.9,40.1,0.3,39.5,0.1z"/>
<path class="st0" d="M111.8,0c-0.6,0-1.1,0.5-1.1,1.1v21.1c0,3.6-3.8,6.6-8.4,6.6s-8.4-2.9-8.4-6.6V1.1c0-0.6-0.5-1.1-1.1-1.1
	s-1.1,0.5-1.1,1.1v21.1c0,4.8,4.8,8.8,10.6,8.8c5.8,0,10.6-3.9,10.6-8.8V1.1C112.9,0.5,112.4,0,111.8,0z"/>
<path class="st0" d="M47.1,13.1c-0.9,0-1.7,0.8-1.7,1.7s0.8,1.7,1.7,1.7s1.7-0.8,1.7-1.7C48.8,13.8,48.1,13.1,47.1,13.1z"/>
<path class="st0" d="M82,13.1c-0.9,0-1.7,0.8-1.7,1.7s0.8,1.7,1.7,1.7c0.9,0,1.7-0.8,1.7-1.7C83.7,13.8,83,13.1,82,13.1z"/>
</svg>
