<?xml version="1.0" encoding="utf-8"?>
<!-- Generator: Adobe Illustrator 25.0.1, SVG Export Plug-In . SVG Version: 6.00 Build 0)  -->
<svg version="1.1" id="Livello_1" xmlns="http://www.w3.org/2000/svg" xmlns:xlink="http://www.w3.org/1999/xlink" x="0px" y="0px"
	 viewBox="0 0 792 612" style="enable-background:new 0 0 792 612;" xml:space="preserve">
<style type="text/css">
	.st0{fill:#403C90;}
	.st1{fill:#00ACA9;}
</style>
<rect class="st0" width="792" height="612"/>
<g>
	<path class="st1" d="M431.37,252.95c-0.56-1.6-2.06-2.65-3.74-2.65c-1.67,0-3.17,1.05-3.71,2.65l-34.2,98.1
		c-0.72,2.05,0.37,4.31,2.42,5.02c2.06,0.71,4.32-0.37,5.05-2.43l30.44-87.38l30.44,87.38c0.58,1.63,2.1,2.65,3.75,2.65
		c0.41,0,0.86-0.06,1.29-0.21c2.05-0.71,3.15-2.97,2.42-5.02L431.37,252.95z"/>
	<path class="st1" d="M335.17,250.52c-2.08-0.73-4.34,0.36-5.05,2.43l-30.45,87.37l-30.44-87.37c-0.56-1.6-2.04-2.65-3.73-2.65
		c-1.68,0-3.19,1.05-3.72,2.65l-30.45,87.37l-30.46-87.37c-0.72-2.07-2.95-3.17-5.02-2.43c-2.07,0.72-3.17,2.98-2.44,5.02
		l34.19,98.1c0.56,1.59,2.05,2.65,3.74,2.65c1.68,0,3.17-1.05,3.72-2.65l30.45-87.38l30.43,87.38c0.58,1.59,2.06,2.65,3.74,2.65
		c1.68,0,3.19-1.05,3.72-2.65l34.21-98.1C338.3,253.5,337.22,251.24,335.17,250.52z"/>
	<path class="st1" d="M594.88,250.3c-2.17,0-3.93,1.77-3.93,3.94v75.94c0,13.03-13.58,23.62-30.24,23.62
		c-16.67,0-30.23-10.59-30.23-23.62v-75.94c0-2.17-1.78-3.94-3.96-3.94c-2.18,0-3.94,1.77-3.94,3.94v75.94
		c0,17.38,17.1,31.53,38.12,31.53c21.02,0,38.13-14.14,38.13-31.53v-75.94C598.84,252.07,597.08,250.3,594.88,250.3z"/>
	<path class="st1" d="M362.59,297.24c-3.35,0-6.06,2.72-6.06,6.06c0,3.35,2.71,6.07,6.06,6.07c3.34,0,6.06-2.72,6.06-6.07
		C368.65,299.95,365.93,297.24,362.59,297.24z"/>
	<path class="st1" d="M487.99,297.24c-3.35,0-6.07,2.72-6.07,6.06c0,3.35,2.72,6.07,6.07,6.07c3.35,0,6.07-2.72,6.07-6.07
		C494.06,299.95,491.34,297.24,487.99,297.24z"/>
</g>
</svg>
